# xmcd
#
# Track frame offsets:
#	150
#	13652
#	27246
#	37998
#	51201
#	62341
#	75033
#	89143
#	102806
#	116178
#	126808
#	139259
#	151636
#	164797
#	178222
#	191896
#	204357
#	218389
#	231146
#	244707
#	258392
#	271691
#	282800
#	294549
#	306570
#
# Disc length: 4236 seconds
#
# Revision: 1
# Processed by: cddbd v1.5.2PL0 Copyright (c) Steve Scherf et al.
# Submitted via: audiograbber 1.83.01
#
DISCID=5f108a19
DTITLE=Brown,Roy - Good rockin' man - The definitive collection [CD 1)
DYEAR=2011
DGENRE=
TTITLE0=Deep sea diver
TTITLE1=Good rocking tonight
TTITLE2=Lolly Pop Mama
TTITLE3=Special lesson No. 1
TTITLE4=Mighty,mighty man
TTITLE5=Miss Fanny Brown
TTITLE6=Long 'bout midnight
TTITLE7=Roy Brown Boogie
TTITLE8='Fore day in the morning
TTITLE9=Rainy weather blues
TTITLE10=Rockin' at midnight
TTITLE11=Please don't go (Come back,baby)
TTITLE12=Boogie at midnight
TTITLE13=Cadillac baby
TTITLE14=Hard luck blues
TTITLE15=Love don't love nobody
TTITLE16=Bar room blues
TTITLE17=Train time blues
TTITLE18=Long about sundown
TTITLE19=Good rockin' man
TTITLE20=Big town
TTITLE21=Money can't buy love
TTITLE22=Hurry hurry baby
TTITLE23=Midnight lover man
TTITLE24=Letter from home
EXTD=
EXTT0=
EXTT1=
EXTT2=
EXTT3=
EXTT4=
EXTT5=
EXTT6=
EXTT7=
EXTT8=
EXTT9=
EXTT10=
EXTT11=
EXTT12=
EXTT13=
EXTT14=
EXTT15=
EXTT16=
EXTT17=
EXTT18=
EXTT19=
EXTT20=
EXTT21=
EXTT22=
EXTT23=
EXTT24=
PLAYORDER=
